<svg xmlns="http://www.w3.org/2000/svg" viewBox="0 0 1200 630">
  <defs>
    <linearGradient id="bg" x1="0" y1="0" x2="1" y2="1">
      <stop offset="0" stop-color="#0a3a61"/>
      <stop offset="0.55" stop-color="#0a6bb5"/>
      <stop offset="1" stop-color="#1390cf"/>
    </linearGradient>
    <linearGradient id="drop" x1="0" y1="0" x2="1" y2="1">
      <stop offset="0" stop-color="#6ad9ef"/>
      <stop offset="1" stop-color="#1e93e6"/>
    </linearGradient>
  </defs>
  <rect width="1200" height="630" fill="url(#bg)"/>
  <circle cx="1020" cy="120" r="260" fill="#6ad9ef" opacity="0.18"/>
  <circle cx="120" cy="560" r="220" fill="#38c6e0" opacity="0.15"/>
  <g transform="translate(110,150)">
    <rect width="92" height="92" rx="24" fill="url(#drop)"/>
    <path fill="#fff" d="M46 16s-19 20-19 33a19 19 0 0 0 38 0c0-13-19-33-19-33zm0 45a12 12 0 0 1-12-12h4a8 8 0 0 0 8 8z"/>
  </g>
  <text x="110" y="330" font-family="Plus Jakarta Sans, Arial, sans-serif" font-size="78" font-weight="800" fill="#ffffff">New Water Today</text>
  <text x="110" y="410" font-family="Manrope, Arial, sans-serif" font-size="40" fill="#d6ecfb">Better water starts today.</text>
  <text x="110" y="475" font-family="Manrope, Arial, sans-serif" font-size="30" fill="#9fc6e2">Testing · Filtration · Softeners · Reverse Osmosis</text>
</svg>
